<svg width="142" height="143" viewBox="0 0 142 143" fill="none" xmlns="http://www.w3.org/2000/svg">
<path d="M71.1985 141.672C109.533 141.672 140.61 110.391 140.61 71.8036C140.61 33.2165 109.533 1.93555 71.1985 1.93555C32.8637 1.93555 1.78711 33.2165 1.78711 71.8036C1.78711 110.391 32.8637 141.672 71.1985 141.672Z" stroke="#B683F2" stroke-width="2.33666" stroke-miterlimit="10" stroke-linecap="round" stroke-linejoin="round"/>
<path d="M58.9646 71.8044H83.8079C89.9251 71.8044 94.7939 76.7053 94.7939 82.8627C94.7939 89.0201 89.9251 93.9209 83.8079 93.9209H50.3506" stroke="#B683F2" stroke-width="2.33666" stroke-miterlimit="10" stroke-linecap="round" stroke-linejoin="round"/>
<path d="M50.3506 49.6877H79.3136C85.4308 49.6877 90.2996 54.5886 90.2996 60.746C90.2996 66.9034 85.4308 71.8043 79.3136 71.8043H58.9646" stroke="#B683F2" stroke-width="2.33666" stroke-miterlimit="10" stroke-linecap="round" stroke-linejoin="round"/>
<path d="M58.9648 41.2686V102.592" stroke="#B683F2" stroke-width="2.33666" stroke-miterlimit="10" stroke-linecap="round" stroke-linejoin="round"/>
<path d="M72.5723 93.9209V102.592" stroke="#B683F2" stroke-width="2.33666" stroke-miterlimit="10" stroke-linecap="round" stroke-linejoin="round"/>
<path d="M72.5723 41.0171V49.6878" stroke="#B683F2" stroke-width="2.33666" stroke-miterlimit="10" stroke-linecap="round" stroke-linejoin="round"/>
</svg>
